Coordinates
version=1
nRows=26
nColumns=30
inDegrees=yes

Units are S.I. units (second, meters, Newtons, ...)
Angles are in degrees.

endheader
time	floatyaw	floatroll	floatpitch	floatx	floaty	floatz	pro_sup_l	deviation_l	flexion_l	cmc_flexion_l	cmc_abduction_l	mp_flexion_l	ip_flexion_l	2mcp_flexion_l	2mcp_abduction_l	2pm_flexion_l	2md_flexion_l	3mcp_flexion_l	3mcp_abduction_l	3pm_flexion_l	3md_flexion_l	4mcp_flexion_l	4mcp_abduction_l	4pm_flexion_l	4md_flexion_l	5mcp_flexion_l	5mcp_abduction_l	5pm_flexion_l	5md_flexion_l
22.500000	-160.147433	-5.066637	-73.570646	-0.044250	-0.089028	-0.089959	112.285169	30.458544	-9.481123	7.564654	35.483176	-21.132249	-44.075526	23.177496	11.274762	47.315828	40.355052	39.453917	6.299711	44.132051	38.730568	35.115556	-5.571492	47.847267	52.209144	2.375474	-12.647524	67.918955	59.278809
22.533333	-160.147433	-5.066637	-73.570646	-0.044250	-0.089028	-0.089959	112.285169	30.458544	-9.481123	7.564654	35.483176	-21.132249	-44.075526	23.177496	11.274762	47.315828	40.355052	39.453917	6.299711	44.132051	38.730568	35.115556	-5.571492	47.847267	52.209144	2.375474	-12.647524	67.918955	59.278809
22.566667	-160.147433	-5.066637	-73.570646	-0.044250	-0.089028	-0.089959	112.285169	30.458544	-9.481123	7.564654	35.483176	-21.132249	-44.075526	23.177496	11.274762	47.315828	40.355052	39.453917	6.299711	44.132051	38.730568	35.115556	-5.571492	47.847267	52.209144	2.375474	-12.647524	67.918955	59.278809
22.600000	-160.147433	-5.066637	-73.570646	-0.044250	-0.089028	-0.089959	112.285169	30.458544	-9.481123	7.564654	35.483176	-21.132249	-44.075526	23.177496	11.274762	47.315828	40.355052	39.453917	6.299711	44.132051	38.730568	35.115556	-5.571492	47.847267	52.209144	2.375474	-12.647524	67.918955	59.278809
22.633333	-160.147433	-5.066637	-73.570646	-0.044250	-0.089028	-0.089959	112.285169	30.458544	-9.481123	7.564654	35.483176	-21.132249	-44.075526	23.177496	11.274762	47.315828	40.355052	39.453917	6.299711	44.132051	38.730568	35.115556	-5.571492	47.847267	52.209144	2.375474	-12.647524	67.918955	59.278809
22.666667	-160.147433	-5.066637	-73.570646	-0.044250	-0.089028	-0.089959	112.285169	30.458544	-9.481123	7.564654	35.483176	-21.132249	-44.075526	23.177496	11.274762	47.315828	40.355052	39.453917	6.299711	44.132051	38.730568	35.115556	-5.571492	47.847267	52.209144	2.375474	-12.647524	67.918955	59.278809
22.700000	-160.147433	-5.066637	-73.570646	-0.044250	-0.089028	-0.089959	112.285169	30.458544	-9.481123	7.564654	35.483176	-21.132249	-44.075526	23.177496	11.274762	47.315828	40.355052	39.453917	6.299711	44.132051	38.730568	35.115556	-5.571492	47.847267	52.209144	2.375474	-12.647524	67.918955	59.278809
22.733333	-160.147433	-5.066637	-73.570646	-0.044250	-0.089028	-0.089959	112.285169	30.458544	-9.481123	7.564654	35.483176	-21.132249	-44.075526	23.177496	11.274762	47.315828	40.355052	39.453917	6.299711	44.132051	38.730568	35.115556	-5.571492	47.847267	52.209144	2.375474	-12.647524	67.918955	59.278809
22.766667	-160.147433	-5.066637	-73.570646	-0.044250	-0.089028	-0.089959	112.285169	30.458544	-9.481123	7.564654	35.483176	-21.132249	-44.075526	23.177496	11.274762	47.315828	40.355052	39.453917	6.299711	44.132051	38.730568	35.115556	-5.571492	47.847267	52.209144	2.375474	-12.647524	67.918955	59.278809
22.800000	-160.147433	-5.066637	-73.570646	-0.044250	-0.089028	-0.089959	112.285169	30.458544	-9.481123	7.564654	35.483176	-21.132249	-44.075526	23.177496	11.274762	47.315828	40.355052	39.453917	6.299711	44.132051	38.730568	35.115556	-5.571492	47.847267	52.209144	2.375474	-12.647524	67.918955	59.278809
22.833333	-160.147433	-5.066637	-73.570646	-0.044250	-0.089028	-0.089959	112.285169	30.458544	-9.481123	7.564654	35.483176	-21.132249	-44.075526	23.177496	11.274762	47.315828	40.355052	39.453917	6.299711	44.132051	38.730568	35.115556	-5.571492	47.847267	52.209144	2.375474	-12.647524	67.918955	59.278809
22.866667	-160.147433	-5.066637	-73.570646	-0.044250	-0.089028	-0.089959	112.285169	30.458544	-9.481123	7.564654	35.483176	-21.132249	-44.075526	23.177496	11.274762	47.315828	40.355052	39.453917	6.299711	44.132051	38.730568	35.115556	-5.571492	47.847267	52.209144	2.375474	-12.647524	67.918955	59.278809
22.900000	-160.147433	-5.066637	-73.570646	-0.044250	-0.089028	-0.089959	112.285169	30.458544	-9.481123	7.564654	35.483176	-21.132249	-44.075526	23.177496	11.274762	47.315828	40.355052	39.453917	6.299711	44.132051	38.730568	35.115556	-5.571492	47.847267	52.209144	2.375474	-12.647524	67.918955	59.278809
22.933333	-160.147433	-5.066637	-73.570646	-0.044250	-0.089028	-0.089959	112.285169	30.458544	-9.481123	7.564654	35.483176	-21.132249	-44.075526	23.177496	11.274762	47.315828	40.355052	39.453917	6.299711	44.132051	38.730568	35.115556	-5.571492	47.847267	52.209144	2.375474	-12.647524	67.918955	59.278809
22.966667	-160.147433	-5.066637	-73.570646	-0.044250	-0.089028	-0.089959	112.285169	30.458544	-9.481123	7.564654	35.483176	-21.132249	-44.075526	23.177496	11.274762	47.315828	40.355052	39.453917	6.299711	44.132051	38.730568	35.115556	-5.571492	47.847267	52.209144	2.375474	-12.647524	67.918955	59.278809
23.000000	-160.147433	-5.066637	-73.570646	-0.045112	-0.084635	-0.091026	117.487701	32.328175	-11.754876	10.684468	38.894126	-16.634231	-42.385831	18.009255	9.498937	48.839551	39.165145	35.823967	6.149866	41.963143	36.189964	31.965159	-5.293281	44.742878	49.319423	2.798432	-11.979492	62.306592	53.171281
23.033333	-160.147433	-5.066637	-73.570646	-0.045112	-0.084635	-0.091026	117.487701	32.328175	-11.754876	10.684468	38.894126	-16.634231	-42.385831	18.009255	9.498937	48.839551	39.165145	35.823967	6.149866	41.963143	36.189964	31.965159	-5.293281	44.742878	49.319423	2.798432	-11.979492	62.306592	53.171281
23.066667	-160.147433	-5.066637	-73.570646	-0.045112	-0.084635	-0.091026	117.487701	32.328175	-11.754876	10.684468	38.894126	-16.634231	-42.385831	18.009255	9.498937	48.839551	39.165145	35.823967	6.149866	41.963143	36.189964	31.965159	-5.293281	44.742878	49.319423	2.798432	-11.979492	62.306592	53.171281
23.100000	-160.147433	-5.066637	-73.570646	-0.045112	-0.084635	-0.091026	117.487701	32.328175	-11.754876	10.684468	38.894126	-16.634231	-42.385831	18.009255	9.498937	48.839551	39.165145	35.823967	6.149866	41.963143	36.189964	31.965159	-5.293281	44.742878	49.319423	2.798432	-11.979492	62.306592	53.171281
23.133333	-160.147433	-5.066637	-73.570646	-0.045112	-0.084635	-0.091026	117.487701	32.328175	-11.754876	10.684468	38.894126	-16.634231	-42.385831	18.009255	9.498937	48.839551	39.165145	35.823967	6.149866	41.963143	36.189964	31.965159	-5.293281	44.742878	49.319423	2.798432	-11.979492	62.306592	53.171281
23.166667	-160.147433	-5.066637	-73.570646	-0.045112	-0.084635	-0.091026	117.487701	32.328175	-11.754876	10.684468	38.894126	-16.634231	-42.385831	18.009255	9.498937	48.839551	39.165145	35.823967	6.149866	41.963143	36.189964	31.965159	-5.293281	44.742878	49.319423	2.798432	-11.979492	62.306592	53.171281
23.200000	-160.147433	-5.066637	-73.570646	-0.045112	-0.084635	-0.091026	117.487701	32.328175	-11.754876	10.684468	38.894126	-16.634231	-42.385831	18.009255	9.498937	48.839551	39.165145	35.823967	6.149866	41.963143	36.189964	31.965159	-5.293281	44.742878	49.319423	2.798432	-11.979492	62.306592	53.171281
23.233333	-160.147433	-5.066637	-73.570646	-0.045112	-0.084635	-0.091026	117.487701	32.328175	-11.754876	10.684468	38.894126	-16.634231	-42.385831	18.009255	9.498937	48.839551	39.165145	35.823967	6.149866	41.963143	36.189964	31.965159	-5.293281	44.742878	49.319423	2.798432	-11.979492	62.306592	53.171281
23.266667	-160.147433	-5.066637	-73.570646	-0.045112	-0.084635	-0.091026	117.487701	32.328175	-11.754876	10.684468	38.894126	-16.634231	-42.385831	18.009255	9.498937	48.839551	39.165145	35.823967	6.149866	41.963143	36.189964	31.965159	-5.293281	44.742878	49.319423	2.798432	-11.979492	62.306592	53.171281
23.300000	-160.147433	-5.066637	-73.570646	-0.045112	-0.084635	-0.091026	117.487701	32.328175	-11.754876	10.684468	38.894126	-16.634231	-42.385831	18.009255	9.498937	48.839551	39.165145	35.823967	6.149866	41.963143	36.189964	31.965159	-5.293281	44.742878	49.319423	2.798432	-11.979492	62.306592	53.171281
23.333333	-160.147433	-5.066637	-73.570646	-0.045112	-0.084635	-0.091026	117.487701	32.328175	-11.754876	10.684468	38.894126	-16.634231	-42.385831	18.009255	9.498937	48.839551	39.165145	35.823967	6.149866	41.963143	36.189964	31.965159	-5.293281	44.742878	49.319423	2.798432	-11.979492	62.306592	53.171281
